<svg width="237" height="181" viewBox="0 0 237 181" fill="none"
    xmlns="http://www.w3.org/2000/svg">
    <path d="M99.1192 24.7501C99.1192 24.7501 89.5645 -1.76083 62.5248 0.09287C62.5248 0.09287 23.4756 17.0631 50.3316 53.4751L54.1681 51.2168C54.1681 51.2168 32.6922 25.0075 56.8434 8.60372C80.9947 -7.80008 95.0621 27.1334 95.0621 27.1334L99.1192 24.7501Z" fill="#152B19"/>
    <path d="M198.377 115.537L134.794 23.8451L135.743 22.8888C144.092 30.2448 152.471 37.6007 160.783 44.9567C175.355 57.9179 189.91 70.9135 204.448 83.9433C214.561 92.9691 212.827 103.076 198.377 115.537Z" fill="#152B19"/>
    <path d="M155.352 10.8838C163.121 16.033 170.919 21.138 178.643 26.3313C193.681 36.4826 208.616 46.803 223.719 56.8733C240.197 67.8631 241.359 76.7785 227.108 92.1819L154.022 12.5021L155.352 10.8838Z" fill="#152B19"/>
    <path d="M33.7064 165.573C24.2056 165.573 16.383 162.593 10.2386 156.635C4.09424 150.677 1.0147 143.09 1 133.876C1 124.691 4.07464 117.136 10.2239 111.212C16.3732 105.288 24.2007 102.338 33.7064 102.363C38.9054 102.27 44.0505 103.431 48.7072 105.747C53.017 107.924 56.5755 111.345 58.9233 115.567L50.3976 121.054C46.4925 115.135 40.8846 112.176 33.5741 112.176C27.4248 112.176 22.3461 114.162 18.338 118.134C14.33 122.106 12.326 127.353 12.326 133.876C12.326 140.506 14.33 145.805 18.338 149.772C22.3461 153.739 27.4248 155.723 33.5741 155.723C40.8895 155.723 46.4925 152.766 50.3829 146.852L58.9086 152.222C56.5508 156.451 52.9965 159.888 48.6925 162.101C44.0537 164.461 38.9095 165.653 33.7064 165.573V165.573Z" stroke="#152B19" stroke-miterlimit="10"/>
    <path d="M108.931 149.742C112.851 145.726 114.811 140.447 114.811 133.905C114.811 127.363 112.865 122.106 108.975 118.134C105.055 114.162 100.074 112.176 94.0329 112.176C87.9914 112.176 82.9887 114.162 79.0247 118.134C75.1048 122.106 73.1449 127.363 73.1449 133.905C73.1449 140.447 75.1048 145.726 79.0247 149.742C82.9446 153.754 87.9473 155.757 94.0329 155.752C100.03 155.752 104.996 153.749 108.931 149.742Z" fill="#152B19"/>
    <path d="M187.36 113.389L121.646 25.5297C112.871 10.6118 101.214 21.4986 101.214 21.4986C101.214 21.4986 52.0149 50.4811 41.6812 56.2556C31.3475 62.03 36.3159 72.0856 36.3159 72.0856L51.4931 107.431C54.5604 109.532 57.0989 112.317 58.909 115.567L55.8295 117.545L61.893 131.669C62.3585 123.484 65.3719 116.675 70.9332 111.241C76.9845 105.322 84.6894 102.363 94.0481 102.363C103.407 102.363 111.092 105.322 117.104 111.241C123.131 117.165 126.147 124.72 126.152 133.905C126.157 143.09 123.121 150.667 117.045 156.635C110.975 162.593 103.309 165.573 94.0481 165.573C86.032 165.573 79.2188 163.366 73.6085 158.952L78.8856 171.229C87.0438 188.523 95.055 176.577 95.055 176.577L181.701 124.718C192.204 122.592 187.36 113.389 187.36 113.389Z" fill="#152B19"/>
</svg>
